<svg xmlns="http://www.w3.org/2000/svg" viewBox="0 0 1030.29 1063.18">
  <path d="M518.29 21.333c282.674.127 511.777 229.308 511.777 512 0 141.273-57.217 269.182-149.74 361.818l.004-.004C787.095 991.616 656.54 1051.51 512 1051.51c-282.77 0-512-229.23-512-512 0-144.484 59.848-274.99 156.107-368.08l.143-.138c92.14-92.633 219.696-149.96 360.64-149.96h1.477-.076zm0 955.733c245.067 0 443.733-198.666 443.733-443.733S763.357 89.6 518.29 89.6 74.557 288.266 74.557 533.333c.285 244.952 198.78 443.448 443.705 443.733h.028zm260.78-409.6H257.51V499.2H779.07zM552.422 794.112h-68.267V272.555h68.267z"/>
</svg>
